<svg xmlns="http://www.w3.org/2000/svg" width="452.466" height="137.437" viewBox="0 0 452.466 137.437">
  <defs>
    <style>
      .cls-1 {
        fill: #fff;
      }
    </style>
  </defs>
  <path id="Tracciato_10" data-name="Tracciato 10" class="cls-1" d="M-168.259-105.4l-9.658,78.777-.336,4.955L-179-13.361s-.649,4.038-21.605,4.038S-263.864-3.626-225.016,2s197.266,11.7,197.244,11.19c-.012-.28-181.785,1.356-230.871-5.061s22.358-19.57,33.627-21.492,33.6-4.109,33.6-4.109l1.323-7.119L-180.1-106.1a40.8,40.8,0,0,0,.42-5.031q0-7.463-7.895-8.972c-3.191-.616-10.04-1.911-10.586-2.939s6.667-1.176,8.4-1.176a55.765,55.765,0,0,1,6.551.588,69.663,69.663,0,0,0,9.574.588q6.215,0,14.277-.588,7.055-.588,10.582-.588,12.766,0,20.534,7.475T-120.472-97a34.882,34.882,0,0,1-6.478,20.324,33.159,33.159,0,0,1-16.657,12.85A41.955,41.955,0,0,1-157.4-61.9c-2.356,0-16.614-.546-17.4-.661l-3.114-.43c-2.86-.344,18.524-2.52,18.524-2.52s13.064-2.939,18.267-8.818a30.185,30.185,0,0,0,7.8-20.66,22.632,22.632,0,0,0-7.511-17.133,25.762,25.762,0,0,0-18.313-7.055q-4.895,0-6.456,2.352T-168.259-105.4Zm50.068,89.094Q-132.8,2.771-148.173,2.771a12.455,12.455,0,0,1-10.036-4.7q-3.905-4.7-3.905-12.178a54.669,54.669,0,0,1,4.71-21.122,66.165,66.165,0,0,1,12.2-19.358q11.187-12.01,23.384-12.01a31.259,31.259,0,0,1,9.421,1.634,10.277,10.277,0,0,0,3.029.6q2.451,0,6.047-5.83,1.8-2.873,2.833-2.789t1.03,1.6a4.533,4.533,0,0,1-.252,1.429q-.168.589-1.092,4.71l-1.932,9.166q-1.764,7.905-3.443,20.266a151.955,151.955,0,0,0-1.68,16.9q0,10.427,3.275,10.427,1.68,0,4.325-2.771a21.13,21.13,0,0,0,4.073-5.963q1.176-2.771,2.52-2.771,1.428,0,1.428,1.757,0,5.354-6.677,12.8T-110.3,2.016q-3.275,0-4.871-3.765T-118.191-16.307Zm-3.567-46.681q-8.891,0-16.943,10.078a59.4,59.4,0,0,0-8.974,16.755q-3.691,10.12-3.691,18.015,0,12.514,11.2,12.514,7.1,0,14.458-7.611t8.441-16.105q.6-4.7,1.287-7.887l1.545-7.552q1.373-6.292,1.974-8.473a17.135,17.135,0,0,0,.6-4.2q0-2.1-3.1-3.818A13.783,13.783,0,0,0-121.758-62.988Zm56.084,15.751,11.882,12.85a20.914,20.914,0,0,1,5.607,14.613A18.5,18.5,0,0,1-54.9-5.371,23.9,23.9,0,0,1-71.279.55,24.387,24.387,0,0,1-83.751-2.457q-5.165-3.007-5.165-7.268,0-5.262,5.08-5.262,2.963,0,5.5,4.2l1.749,3.107a7.452,7.452,0,0,0,6.832,4.031,12.574,12.574,0,0,0,8.54-3.161,9.612,9.612,0,0,0,3.624-7.458q0-6.826-6.694-13.821l-9.371-9.742Q-80.1-44.55-80.1-52.192q0-8.146,5.5-12.724t15.159-4.577Q-46-69.493-46-61.633q0,5.241-5.253,5.241A5.219,5.219,0,0,1-55.658-59l-1.828-2.6a7.924,7.924,0,0,0-6.9-3.863q-7.147,0-7.147,7.858Q-71.531-53.591-65.673-47.237Zm40.732.172,11.882,12.85A20.914,20.914,0,0,1-7.451-19.6,18.5,18.5,0,0,1-14.17-5.2,23.9,23.9,0,0,1-30.547.722,24.387,24.387,0,0,1-43.019-2.285q-5.165-3.007-5.165-7.268,0-5.262,5.08-5.262,2.963,0,5.5,4.2l1.749,3.107a7.452,7.452,0,0,0,6.832,4.031,12.574,12.574,0,0,0,8.54-3.161A9.612,9.612,0,0,0-16.858-14.1q0-6.826-6.694-13.821l-9.371-9.742q-6.443-6.719-6.443-14.361,0-8.146,5.5-12.724t15.159-4.577q13.437,0,13.438,7.86,0,5.241-5.253,5.241a5.219,5.219,0,0,1-4.405-2.6l-1.828-2.6a7.924,7.924,0,0,0-6.9-3.863q-7.147,0-7.147,7.858Q-30.8-53.419-24.941-47.065ZM9.312-34.5l3.527-20.8a22.709,22.709,0,0,0,.42-4.109q0-3.355-4.955-3.355c-7,0,5.553-4.171,10.351-5.123a25.6,25.6,0,0,1,4.269-.5q1.757,0,1.757,2.016l-.083.924-4.656,23.18q-3.492,17.217-3.492,26.2,0,5.039,2.6,5.207,3.779.252,7.475-6.971.924-1.932,2.016-1.932,1.344,0,1.26,1.764-.336,5.459-6.467,11.968T12.419.471Q9.9.471,8.3-3.261a24.645,24.645,0,0,1-1.6-9.6Q6.708-19.491,9.312-34.5ZM31.195-81.916c-.13,3.5-.841,6.924-5.7,5.172s-5.536-2.708-5.541-5.844a6.072,6.072,0,0,1,5.964-5.728A6.035,6.035,0,0,1,31.195-81.916ZM68.042-65.21q11.17,0,17.8,7.433t6.635,19.946q0,17.721-9.91,30.192T58.551,4.833A21.6,21.6,0,0,1,41.208-3.1q-6.677-7.937-6.677-20.534a49.461,49.461,0,0,1,3.905-18.854,41.3,41.3,0,0,1,9.952-15.075A28.077,28.077,0,0,1,68.042-65.21Zm.22,4.115q-9.6,0-16.036,10.819t-6.44,26.839Q45.786.046,60.1.046q8.67,0,14.942-11.532t6.272-27.635Q81.311-61.095,68.262-61.095Zm47.657,11.255a46.847,46.847,0,0,1,12.9-12.23q7.185-4.47,13.739-4.47,5.21,0,8.7,5.383t3.487,13.541q0,4.71-.629,12.027l-1.886,21.866a15.177,15.177,0,0,0-.089,1.6q0,4.374,2.436,4.374c2.8,0,10.19-8.146,11.086-8.146,1.008,0,11.126-12.951,11.126-9.836s-4.015,15.263-11.126,22.3-11.5,7.151-17.32,5.845-5.943-3.691-5.943-11.072q0-2.516.336-6.876l2.1-25.749q.168-1.677.168-3.774,0-6.542-2.47-10.442a7.488,7.488,0,0,0-6.572-3.9q-7.116,0-12.349,8.681t-7.026,23.442L113.336-1.866q-.252,2.517-1.428,3.355t-4.367.839q-4.283,0-4.115-2.691l.168-1.514,2.688-21.783q.588-5.047,1.26-10.009a106.26,106.26,0,0,0,1.176-13.121q0-8.242-3.779-8.242-1.428,0-3.4,2.058a13.077,13.077,0,0,0-2.9,4.577q-1.092,3.107-2.352,3.107-1.68,0-1.68-2.342,0-5.689,5.012-12.171t9.476-6.483q3.031,0,4.927,3.627a20.39,20.39,0,0,1,1.9,9.447Z" transform="translate(275.682 124.214)"/>
</svg>
