<svg xmlns="http://www.w3.org/2000/svg" width="88.067" height="98.96" viewBox="0 0 88.067 98.96">
  <path id="Icon_awesome-plane" data-name="Icon awesome-plane" d="M81.625,32.65H62.19L44.317,1.371A2.723,2.723,0,0,0,41.953,0H30.815A2.72,2.72,0,0,0,28.2,3.467L36.537,32.65H19.046l-7.346-9.8a2.721,2.721,0,0,0-2.177-1.088h-6.8A2.72,2.72,0,0,0,.083,25.147L5.441,43.534.083,61.92A2.72,2.72,0,0,0,2.722,65.3h6.8A2.719,2.719,0,0,0,11.7,64.212l7.346-9.8H36.537L28.2,83.6a2.721,2.721,0,0,0,2.615,3.469H41.953A2.723,2.723,0,0,0,44.315,85.7L62.19,54.417H81.625c6.011,0,16.325-4.872,16.325-10.883S87.636,32.65,81.625,32.65Z" transform="translate(0.5 98.45) rotate(-90)" fill="none" stroke="#000" stroke-width="1"/>
</svg>
