<svg xmlns="http://www.w3.org/2000/svg" width="88.705" height="82.352" viewBox="0 0 88.705 82.352">
  <g id="Icon_ionic-md-restaurant" data-name="Icon ionic-md-restaurant" transform="translate(0.5 0.52)">
    <path id="Tracciato_1" data-name="Tracciato 1" d="M27.994,49.039l13.065-12.73L8.739,5.042a17.6,17.6,0,0,0,0,25.236Z" transform="translate(-3.41 -3.413)" fill="none" stroke="#000" stroke-width="1"/>
    <path id="Tracciato_2" data-name="Tracciato 2" d="M56.223,42.084c7.107,3.127,16.963.894,24.068-6.253C89,27.345,90.836,15.061,83.959,8.584c-6.648-6.7-19.255-4.911-27.965,3.575-7.335,7.147-9.628,16.75-6.418,23.45C39.49,45.659,4.878,79.382,4.878,79.382L11.3,85.635l31.632-30.82L74.56,85.635l6.418-6.253L49.346,48.562Z" transform="translate(-0.466 -4.5)" fill="none" stroke="#000" stroke-width="1"/>
  </g>
</svg>
